<?xml version="1.0" encoding="UTF-8" standalone="no"?>
<svg
   width="122"
   height="39.444199"
   viewBox="0 0 122 39.444199"
   fill="none"
   version="1.1"
   id="svg89"
   sodipodi:docname="Size=Desktop.svg"
   xmlns:inkscape="http://www.inkscape.org/namespaces/inkscape"
   xmlns:sodipodi="http://sodipodi.sourceforge.net/DTD/sodipodi-0.dtd"
   xmlns="http://www.w3.org/2000/svg"
   xmlns:svg="http://www.w3.org/2000/svg">
  <defs
     id="defs93" />
  <sodipodi:namedview
     id="namedview91"
     pagecolor="#ffffff"
     bordercolor="#000000"
     borderopacity="0.25"
     inkscape:showpageshadow="2"
     inkscape:pageopacity="0.0"
     inkscape:pagecheckerboard="0"
     inkscape:deskcolor="#d1d1d1"
     showgrid="false" />
  <g
     id="g258"
     transform="translate(-659.5,-66.6418)">
    <path
       d="m 671.144,86.7402 -6.516,6.6636 v 9.3502 H 659.5 V 66.6418 h 5.128 v 20.2059 l 19.443,-20.2059 h 5.876 l -15.277,16.2292 16.345,19.883 h -5.983 z"
       fill="#ffffff"
       id="path77" />
    <path
       d="m 728.405,99.8526 2.03,-3.8692 c 2.35,1.6122 5.983,2.7944 9.508,2.7944 4.594,0 6.41,-1.3972 6.41,-3.7617 0,-6.1262 -17.2,-0.8598 -17.2,-11.7151 0,-4.944 4.38,-8.1683 11.324,-8.1683 3.526,0 7.585,0.9673 9.935,2.472 l -2.136,3.8692 c -2.457,-1.6122 -5.128,-2.1496 -7.799,-2.1496 -4.273,0 -6.41,1.6122 -6.41,3.7618 0,6.4486 17.2,1.1822 17.2,11.8225 0,4.944 -4.487,8.0604 -11.751,8.0604 -4.38,0.108 -8.867,-1.289 -11.111,-3.1164 z"
       fill="#ffffff"
       id="path79" />
    <path
       d="m 781.5,86.2027 v 16.5513 h -4.701 v -3.6539 c -1.602,2.4719 -4.7,3.8689 -8.973,3.8689 -6.196,0 -10.042,-3.3316 -10.042,-8.0606 0,-4.4066 2.777,-7.9533 10.896,-7.9533 h 7.799 v -0.9673 c 0,-4.1917 -2.457,-6.5562 -7.264,-6.5562 -3.205,0 -6.517,1.1823 -8.654,2.9019 l -2.03,-3.7617 c 2.778,-2.257 6.838,-3.5468 11.218,-3.5468 7.585,0.1075 11.751,3.7617 11.751,11.1777 z m -4.914,8.1683 v -3.8692 h -7.585 c -4.914,0 -6.303,1.9346 -6.303,4.1917 0,2.6869 2.243,4.4066 5.982,4.4066 3.739,0.1074 6.731,-1.5047 7.906,-4.7291 z"
       fill="#ffffff"
       id="path81" />
    <path
       d="m 712.595,95.5537 v 7.3083 l 3.098,-1.827 v -7.3084 z"
       fill="#ffffff"
       id="path83" />
    <path
       d="m 721.141,86.6328 -12.713,-7.416 -7.051,-4.0841 -6.944,12.145 0.107,11.3926 12.606,7.4157 1.282,-0.752 V 94.5862 l 5.662,-9.9955 5.769,3.3319 v 10.7477 l 1.282,-0.7523 z"
       fill="#ffffff"
       id="path85" />
  </g>
</svg>
